<svg id="visual" viewBox="0 0 2400 1200" width="2400" height="1200" xmlns="http://www.w3.org/2000/svg" xmlns:xlink="http://www.w3.org/1999/xlink" version="1.1"><rect x="0" y="0" width="2400" height="1200" fill="#fff"></rect><defs><linearGradient id="grad1_0" x1="50%" y1="100%" x2="100%" y2="0%"><stop offset="10%" stop-color="#16a34a" stop-opacity="1"></stop><stop offset="90%" stop-color="#16a34a" stop-opacity="1"></stop></linearGradient></defs><defs><linearGradient id="grad1_1" x1="50%" y1="100%" x2="100%" y2="0%"><stop offset="10%" stop-color="#16a34a" stop-opacity="1"></stop><stop offset="90%" stop-color="#9bd2a2" stop-opacity="1"></stop></linearGradient></defs><defs><linearGradient id="grad1_2" x1="50%" y1="100%" x2="100%" y2="0%"><stop offset="10%" stop-color="#ffffff" stop-opacity="1"></stop><stop offset="90%" stop-color="#9bd2a2" stop-opacity="1"></stop></linearGradient></defs><defs><linearGradient id="grad2_0" x1="0%" y1="100%" x2="50%" y2="0%"><stop offset="10%" stop-color="#16a34a" stop-opacity="1"></stop><stop offset="90%" stop-color="#16a34a" stop-opacity="1"></stop></linearGradient></defs><defs><linearGradient id="grad2_1" x1="0%" y1="100%" x2="50%" y2="0%"><stop offset="10%" stop-color="#9bd2a2" stop-opacity="1"></stop><stop offset="90%" stop-color="#16a34a" stop-opacity="1"></stop></linearGradient></defs><defs><linearGradient id="grad2_2" x1="0%" y1="100%" x2="50%" y2="0%"><stop offset="10%" stop-color="#9bd2a2" stop-opacity="1"></stop><stop offset="90%" stop-color="#ffffff" stop-opacity="1"></stop></linearGradient></defs><g transform="translate(2400, 1200)"><path d="M-1080 0C-1037.4 -54.7 -994.8 -109.4 -989.7 -174.5C-984.7 -239.6 -1017.1 -315.2 -971.6 -353.6C-926.2 -392.1 -802.8 -393.4 -763.8 -441C-724.9 -488.6 -770.2 -582.4 -755.3 -633.8C-740.4 -685.1 -665.1 -694 -625.4 -745.4C-585.7 -796.7 -581.6 -890.7 -540 -935.3C-498.4 -979.9 -419.5 -975.3 -351.3 -965.1C-283 -954.8 -225.5 -939 -168.8 -957.2C-112 -975.5 -56 -1027.7 0 -1080L0 0Z" fill="#cde9d0"></path><path d="M-720 0C-691.6 -36.5 -663.2 -72.9 -659.8 -116.3C-656.4 -159.8 -678.1 -210.1 -647.8 -235.8C-617.5 -261.4 -535.2 -262.3 -509.2 -294C-483.2 -325.7 -513.5 -388.3 -503.5 -422.5C-493.6 -456.8 -443.4 -462.7 -417 -496.9C-390.5 -531.2 -387.7 -593.8 -360 -623.5C-332.3 -653.3 -279.7 -650.2 -234.2 -643.4C-188.7 -636.6 -150.4 -626 -112.5 -638.2C-74.7 -650.3 -37.3 -685.2 0 -720L0 0Z" fill="#65bb76"></path><path d="M-360 0C-345.8 -18.2 -331.6 -36.5 -329.9 -58.2C-328.2 -79.9 -339 -105.1 -323.9 -117.9C-308.7 -130.7 -267.6 -131.1 -254.6 -147C-241.6 -162.9 -256.7 -194.1 -251.8 -211.3C-246.8 -228.4 -221.7 -231.3 -208.5 -248.5C-195.2 -265.6 -193.9 -296.9 -180 -311.8C-166.1 -326.6 -139.8 -325.1 -117.1 -321.7C-94.3 -318.3 -75.2 -313 -56.3 -319.1C-37.3 -325.2 -18.7 -342.6 0 -360L0 0Z" fill="#16a34a"></path></g><g transform="translate(0, 0)"><path d="M1080 0C999.9 49.8 919.8 99.5 905 159.6C890.3 219.7 941 290.1 931.2 338.9C921.5 387.8 851.2 415.2 834.8 482C818.5 548.8 855.9 655.1 805.9 676.2C755.8 697.3 618.3 633.3 572.7 682.5C527.1 731.8 573.5 894.4 540 935.3C506.5 976.2 393.1 895.3 320.5 880.5C247.9 865.7 216.1 916.9 169.5 961.2C122.9 1005.4 61.4 1042.7 0 1080L0 0Z" fill="#cde9d0"></path><path d="M720 0C666.6 33.2 613.2 66.3 603.4 106.4C593.5 146.4 627.3 193.4 620.8 226C614.3 258.5 567.5 276.8 556.6 321.3C545.6 365.9 570.6 436.7 537.3 450.8C503.9 464.9 412.2 422.2 381.8 455C351.4 487.9 382.3 596.3 360 623.5C337.7 650.8 262 596.9 213.6 587C165.3 577.1 144.1 611.3 113 640.8C81.9 670.3 41 695.1 0 720L0 0Z" fill="#65bb76"></path><path d="M360 0C333.3 16.6 306.6 33.2 301.7 53.2C296.8 73.2 313.7 96.7 310.4 113C307.2 129.3 283.7 138.4 278.3 160.7C272.8 182.9 285.3 218.4 268.6 225.4C251.9 232.4 206.1 211.1 190.9 227.5C175.7 243.9 191.2 298.1 180 311.8C168.8 325.4 131 298.4 106.8 293.5C82.6 288.6 72 305.6 56.5 320.4C41 335.1 20.5 347.6 0 360L0 0Z" fill="#16a34a"></path></g></svg>